<svg width="120" height="104" viewBox="0 0 120 104" fill="none" xmlns="http://www.w3.org/2000/svg">
<path d="M2.73706 55.2466L16.4492 46.2049C19.6269 44.1101 24.2975 44.5009 26.8804 47.0771C29.4646 49.6542 28.9826 53.4422 25.805 55.537L19.1692 59.9127L67.3479 92.8359C70.5256 94.9307 71.0074 98.7187 68.4233 101.295C66.9583 102.758 64.8208 103.516 62.6664 103.516C61.0229 103.516 59.3673 103.075 57.9933 102.168L2.73706 64.5787C1.0062 63.4368 0 61.723 0 59.9127C0 58.1024 1.0062 56.3895 2.73706 55.2466Z" fill="white"/>
<path d="M63.6265 0.000189645C67.5628 0.025784 70.7296 2.63446 70.698 5.82785L70.085 97.7796C70.0535 100.973 66.8358 103.54 62.8995 103.515C61.9017 103.509 60.955 103.337 60.0956 103.031C57.5649 102.131 55.8037 100.072 55.8268 97.687L56.4409 5.73628C56.4725 2.54289 59.689 -0.0254047 63.6265 0.000189645Z" fill="white"/>
<path d="M94.919 63.2518L99.9829 59.9127L81.9461 48.0182C78.7684 45.9234 78.2878 42.1354 80.8707 39.5592C83.4536 36.9811 88.1242 36.5913 91.3019 38.6861L116.414 55.2466C118.146 56.3895 119.151 58.1024 119.151 59.9127C119.151 61.723 118.146 63.4368 116.414 64.5787L104.275 72.5839C102.9 73.4905 101.245 73.9315 99.6018 73.9315C97.4461 73.9315 95.3086 73.1735 93.8436 71.7117C91.2607 69.1345 91.7425 65.3476 94.919 63.2518Z" fill="#B0B0B0"/>
</svg>
